<?xml version="1.0" encoding="utf-8"?><!-- Uploaded to: SVG Repo, www.svgrepo.com, Generator: SVG Repo Mixer Tools -->
<svg width="800px" height="800px" viewBox="0 0 400 400" fill="none" xmlns="http://www.w3.org/2000/svg">
<path d="M351 189.404C341.929 175.244 341.929 159.109 329.743 159.109C314.255 159.109 312.298 174.881 304.293 174.881C296.627 174.881 285.835 159.109 280.001 159.109C274.803 159.109 272.8 166.856 262.774 178.248C261.433 179.771 258.262 184.392 258.991 186.727C259.994 189.909 276.8 201.627 280.001 205.028C301.52 227.887 292.026 232.068 315.287 213.059C326.644 203.779 339.691 197.848 349.738 187.176" stroke="#000000" stroke-opacity="0.9" stroke-width="16" stroke-linecap="round" stroke-linejoin="round"/>
<path d="M347.561 173.337C356.053 149.397 348.106 131.428 331.539 158.245" stroke="#000000" stroke-opacity="0.9" stroke-width="16" stroke-linecap="round" stroke-linejoin="round"/>
<path d="M269.264 150.766C258.349 122.288 244.091 164.68 262.73 169.457" stroke="#000000" stroke-opacity="0.9" stroke-width="16" stroke-linecap="round" stroke-linejoin="round"/>
<path d="M330.242 159.109C312.296 141.83 292.387 141.83 279.643 150.904" stroke="#000000" stroke-opacity="0.9" stroke-width="16" stroke-linecap="round" stroke-linejoin="round"/>
<path d="M304.293 239.712C303.326 280.829 296.25 232.937 278.984 235.328C269.545 236.636 275.785 253.859 270.679 257.256C267.322 259.491 264.656 237.061 263.955 235.769C262.121 232.376 234.431 224.208 229.551 223.05C203.04 216.746 173.254 226.112 173.254 257.256" stroke="#000000" stroke-opacity="0.9" stroke-width="16" stroke-linecap="round" stroke-linejoin="round"/>
<path d="M235.529 151.002C157.538 107.85 134.655 215.609 173.93 259.832C175.158 261.217 181.396 253.615 184.124 252.654C196.225 248.399 205.22 250.9 214.288 258.634" stroke="#000000" stroke-opacity="0.9" stroke-width="16" stroke-linecap="round" stroke-linejoin="round"/>
<path d="M144.441 212.835C99.4797 195.134 -16.7754 254.826 101.559 254.826C144.441 254.826 134.075 229.853 155.09 224.008" stroke="#000000" stroke-opacity="0.9" stroke-width="16" stroke-linecap="round" stroke-linejoin="round"/>
<path opacity="0.503384" d="M111.117 210.848C106.296 218.346 108.318 222.868 113.574 228.957" stroke="#000000" stroke-opacity="0.9" stroke-width="14" stroke-linecap="round" stroke-linejoin="round"/>
<path opacity="0.503384" d="M84.4004 221.195C82.6152 225.261 85.6252 228.171 86.2168 231.543" stroke="#000000" stroke-opacity="0.9" stroke-width="14" stroke-linecap="round" stroke-linejoin="round"/>
<path opacity="0.503384" d="M273.155 196.541C290.573 193.625 308.571 193.625 328.586 202.045" stroke="#000000" stroke-opacity="0.9" stroke-width="14" stroke-linecap="round" stroke-linejoin="round"/>
</svg>